<svg width="8" height="17" viewBox="0 0 8 17" fill="none" xmlns="http://www.w3.org/2000/svg">
<path fill-rule="evenodd" clip-rule="evenodd" d="M5.99997 14.5C5.99997 15.0304 5.78925 15.5391 5.41418 15.9142C5.03911 16.2893 4.5304 16.5 3.99997 16.5C3.46954 16.5 2.96083 16.2893 2.58575 15.9142C2.21068 15.5391 1.99997 15.0304 1.99997 14.5C1.99997 13.9696 2.21068 13.4609 2.58575 13.0858C2.96083 12.7107 3.46954 12.5 3.99997 12.5C4.5304 12.5 5.03911 12.7107 5.41418 13.0858C5.78925 13.4609 5.99997 13.9696 5.99997 14.5ZM7.77997 5.659C7.63934 5.51855 7.44872 5.43966 7.24997 5.43966C7.05122 5.43966 6.86059 5.51855 6.71997 5.659L4.74997 7.629V1.25C4.74997 1.05109 4.67095 0.860322 4.5303 0.71967C4.38965 0.579018 4.19888 0.5 3.99997 0.5C3.80106 0.5 3.61029 0.579018 3.46964 0.71967C3.32899 0.860322 3.24997 1.05109 3.24997 1.25V7.629L1.27997 5.659C1.13779 5.52652 0.949747 5.4544 0.755446 5.45783C0.561145 5.46125 0.37576 5.53997 0.238347 5.67738C0.100934 5.81479 0.0222218 6.00018 0.0187936 6.19448C0.0153654 6.38878 0.0874883 6.57683 0.219968 6.719L3.46997 9.969L3.99997 10.5L4.52997 9.97L7.77997 6.72C7.84966 6.65035 7.90495 6.56765 7.94267 6.47662C7.98039 6.3856 7.99981 6.28803 7.99981 6.1895C7.99981 6.09097 7.98039 5.9934 7.94267 5.90238C7.90495 5.81135 7.84966 5.72865 7.77997 5.659Z" fill="#31353B"/>
</svg>
