<svg width="24" height="12" viewBox="0 0 24 12" xmlns="http://www.w3.org/2000/svg">
<path fill-rule="evenodd" clip-rule="evenodd" d="M20.2858 3.41868C21.0435 3.41868 21.7703 3.71433 22.3061 4.2406C22.8419 4.76686 23.1429 5.48063 23.1429 6.22488C23.1429 6.96913 22.8419 7.6829 22.3061 8.20917C21.7703 8.73543 21.0435 9.03108 20.2858 9.03108C19.528 9.03108 18.8013 8.73543 18.2655 8.20917C17.7296 7.6829 17.4286 6.96913 17.4286 6.22488C17.4286 5.48063 17.7296 4.76686 18.2655 4.2406C18.8013 3.71433 19.528 3.41868 20.2858 3.41868ZM7.65577 0.921162C7.45512 1.11847 7.34242 1.38594 7.34242 1.6648C7.34242 1.94367 7.45512 2.21114 7.65577 2.40845L10.4701 5.17256L1.3572 5.17256C1.07303 5.17256 0.800513 5.28343 0.599581 5.48078C0.398649 5.67812 0.285767 5.94579 0.285767 6.22488C0.285767 6.50398 0.398649 6.77164 0.599581 6.96899C0.800513 7.16634 1.07303 7.27721 1.3572 7.27721L10.4701 7.27721L7.65577 10.0413C7.46651 10.2408 7.36348 10.5046 7.36837 10.7773C7.37327 11.0499 7.48572 11.31 7.68202 11.5028C7.87832 11.6956 8.14316 11.8061 8.42073 11.8109C8.69831 11.8157 8.96694 11.7145 9.17005 11.5286L13.8129 6.96853L14.5715 6.22488L13.8143 5.48124L9.17148 0.921162C9.07198 0.823373 8.95384 0.745798 8.8238 0.692872C8.69376 0.639945 8.55438 0.612703 8.41362 0.612703C8.27286 0.612703 8.13348 0.639945 8.00345 0.692872C7.87341 0.745798 7.75527 0.823373 7.65577 0.921162Z" />
</svg>
