<svg width="65" height="69" viewBox="0 0 65 69" fill="currentColor" xmlns="http://www.w3.org/2000/svg">
<path d="M64.1543 65.0363C64.1543 66.0466 63.7799 67.0156 63.1135 67.7301C62.4472 68.4445 61.5433 68.8459 60.6009 68.8459H3.74605C2.80363 68.8459 1.8998 68.4445 1.2334 67.7301C0.567005 67.0156 0.192627 66.0466 0.192627 65.0363V4.08177C0.192627 3.07138 0.567005 2.10238 1.2334 1.38793C1.8998 0.673483 2.80363 0.27211 3.74605 0.27211H60.6009C61.5433 0.27211 62.4472 0.673483 63.1135 1.38793C63.7799 2.10238 64.1543 3.07138 64.1543 4.08177V65.0363ZM28.62 7.89142H7.29948V61.2266H28.62V7.89142ZM57.0475 38.3687H35.7269V61.2266H57.0475V38.3687ZM57.0475 7.89142H35.7269V30.7494H57.0475V7.89142Z" />
</svg>
