<svg width="46" height="33" viewBox="0 0 46 33" fill="none" xmlns="http://www.w3.org/2000/svg">
<path d="M26.4317 30.7383C24.9753 32.1947 23.3547 32.9332 21.57 32.9537C19.7853 32.9743 18.2058 32.2973 16.8314 30.9229C16.1749 30.2665 15.6826 29.5075 15.3544 28.6459C15.0057 27.7638 14.8723 26.7484 14.9544 25.5996L15.939 8.24516C15.939 8.16311 15.9288 8.09131 15.9083 8.02977C15.8877 7.9272 15.8467 7.84515 15.7852 7.78361C15.7031 7.70155 15.6006 7.66052 15.4775 7.66052C15.3544 7.6195 15.2313 7.6195 15.1082 7.66052C15.0057 7.68104 14.9134 7.73232 14.8313 7.81437L4.80017 17.8455L0.523096 13.5684L11.6927 2.3988C12.6774 1.41415 13.7338 0.76797 14.8621 0.460267C15.9903 0.111536 17.1186 0.091022 18.2468 0.398726C19.3545 0.685914 20.37 1.29106 21.2931 2.21417C21.9495 2.87061 22.4521 3.63987 22.8008 4.52195C23.1495 5.36301 23.2931 6.30663 23.2316 7.35282L22.1546 24.8611C22.1546 24.9022 22.1546 24.9637 22.1546 25.0458C22.1752 25.1073 22.1957 25.1688 22.2162 25.2304C22.2367 25.2509 22.2777 25.2919 22.3393 25.3535C22.4213 25.4355 22.5239 25.4971 22.647 25.5381C22.7495 25.5586 22.8624 25.5483 22.9854 25.5073C23.1085 25.4663 23.2213 25.3945 23.3239 25.2919L34.0012 14.6146L37.8513 15.3724L38.2783 18.8917L26.4317 30.7383Z" fill="url(#paint0_linear_218_25)"/>
<path d="M44.046 13.8624C43.2255 14.683 42.2306 15.1035 41.0613 15.124C39.8921 15.1035 38.9074 14.6932 38.1074 13.8932C37.2868 13.0727 36.8766 12.088 36.8766 10.9392C36.8766 9.74946 37.2868 8.74429 38.1074 7.92375C38.9074 7.12372 39.8921 6.73397 41.0613 6.75448C42.2306 6.73397 43.2255 7.13398 44.046 7.95452C44.5794 8.48787 44.9384 9.11354 45.123 9.83152C45.3076 10.5495 45.3076 11.2675 45.123 11.9854C44.9589 12.6829 44.5999 13.3086 44.046 13.8624Z" fill="#31353B"/>
<defs>
<linearGradient id="paint0_linear_218_25" x1="12.5458" y1="1.54576" x2="34.4542" y2="23.4542" gradientUnits="userSpaceOnUse">
<stop stop-color="#FF5656"/>
<stop offset="1" stop-color="#F54949"/>
</linearGradient>
</defs>
</svg>
